<svg xmlns="http://www.w3.org/2000/svg" version="1.1" xmlns:xlink="http://www.w3.org/1999/xlink" xmlns:svgjs="http://svgjs.dev/svgjs" width="1000" height="1000" viewBox="0 0 1000 1000"><rect width="1000" height="1000" fill="#ffffff"></rect><g transform="matrix(0.7,0,0,0.7,149.57575757575756,282.1265587044535)"><svg viewBox="0 0 396 247" data-background-color="#ffffff" preserveAspectRatio="xMidYMid meet" height="623" width="1000" xmlns="http://www.w3.org/2000/svg" xmlns:xlink="http://www.w3.org/1999/xlink"><g id="tight-bounds" transform="matrix(1,0,0,1,0.2400000000000091,-0.09999999999999432)"><svg viewBox="0 0 395.52 247.2" height="247.2" width="395.52"><g><svg></svg></g><g><svg viewBox="0 0 395.52 247.2" height="247.2" width="395.52"><g transform="matrix(1,0,0,1,73.80936170212765,37.08)"><svg viewBox="0 0 247.9012765957447 173.04" height="173.04" width="247.9012765957447"><g><svg viewBox="0 0 247.9012765957447 173.04" height="173.04" width="247.9012765957447"><g><svg viewBox="0 0 247.9012765957447 173.04" height="173.04" width="247.9012765957447"><g><svg viewBox="0 0 247.9012765957447 173.04" height="173.04" width="247.9012765957447"><g id="textblocktransform"><svg viewBox="0 0 247.9012765957447 173.04" height="173.04" width="247.9012765957447" id="textblock"><g><svg viewBox="0 0 247.9012765957447 173.04" height="173.04" width="247.9012765957447"><g transform="matrix(1,0,0,1,0,0)"><svg width="247.9012765957447" viewBox="-2.75 -29.5 61.59000015258789 43.29999923706055" height="173.04" data-palette-color="#2b2b2b"><path d="M9.1 0.5L9.1 0.5Q7.15 0.5 5.68 0.03 4.2-0.45 3.2-1.8 2.2-3.15 1.73-5.73 1.25-8.3 1.25-12.5L1.25-12.5Q1.25-19.35 3.45-22.43 5.65-25.5 9.55-25.5L9.55-25.5Q12.2-25.5 13.93-24.43 15.65-23.35 16.48-20.55 17.3-17.75 17.3-12.65L17.3-12.65Q17.3-5.6 15.23-2.55 13.15 0.5 9.1 0.5ZM9.25-3.35L9.25-3.35Q10.15-3.35 10.83-4.05 11.5-4.75 11.93-6.75 12.35-8.75 12.35-12.6L12.35-12.6Q12.35-16.45 12.05-18.4 11.75-20.35 11.1-21 10.45-21.65 9.4-21.65L9.4-21.65Q8.45-21.65 7.73-20.95 7-20.25 6.6-18.25 6.2-16.25 6.2-12.45L6.2-12.45Q6.2-9.45 6.4-7.6 6.6-5.75 6.98-4.85 7.35-3.95 7.93-3.65 8.5-3.35 9.25-3.35ZM27.5 9.8L27.5 9.8Q24.15 9.8 22.4 8.97 20.65 8.15 20.05 6.88 19.45 5.6 19.45 4.3L19.45 4.3Q19.45 2.55 20.45 1.07 21.45-0.4 23.02-1.5 24.6-2.6 26.35-3.15L26.35-3.15 27.95-1.8Q27.05-1.4 26.17-0.63 25.3 0.15 24.75 1.15 24.2 2.15 24.2 3.2L24.2 3.2Q24.2 3.95 24.5 4.5 24.8 5.05 25.62 5.35 26.45 5.65 27.95 5.65L27.95 5.65Q30.35 5.65 31.37 4.45 32.4 3.25 32.4 2.05L32.4 2.05Q32.4 1 31.97 0.4 31.55-0.2 30.32-0.53 29.1-0.85 26.75-1L26.75-1Q24.75-1.15 23.27-1.55 21.8-1.95 20.97-2.65 20.15-3.35 20.2-4.35L20.2-4.35Q20.25-5.15 20.72-6.03 21.2-6.9 22.12-7.83 23.05-8.75 24.35-9.65L24.35-9.65 27.1-8.75Q26.9-8.65 26.4-8.15 25.9-7.65 25.47-7.05 25.05-6.45 25.05-5.95L25.05-5.95Q25.05-5.3 26.6-5.08 28.15-4.85 30.45-4.5L30.45-4.5Q32.5-4.2 33.95-3.58 35.4-2.95 36.22-1.75 37.05-0.55 37.05 1.45L37.05 1.45Q37.05 3.7 36.05 5.6 35.05 7.5 32.97 8.65 30.9 9.8 27.5 9.8ZM28.1-7.7L28.1-7.7Q25.1-7.7 23.4-8.85 21.7-10 21-11.95 20.3-13.9 20.3-16.3L20.3-16.3Q20.3-19.7 21.35-21.7 22.4-23.7 24.27-24.6 26.15-25.5 28.65-25.5L28.65-25.5Q29.3-25.5 30.1-25.35 30.9-25.2 31.6-24.9L31.6-24.9 32.45-22.9Q34.15-22.2 35.17-20.58 36.2-18.95 36.2-16.25L36.2-16.25Q36.2-13.6 35.37-11.68 34.55-9.75 32.77-8.72 31-7.7 28.1-7.7ZM28.35-11.15L28.35-11.15Q29.45-11.15 30.17-11.78 30.9-12.4 31.25-13.8 31.6-15.2 31.6-17.4L31.6-17.4Q31.6-20 30.82-21.1 30.05-22.2 28.5-22.2L28.5-22.2Q27.55-22.2 26.77-21.65 26-21.1 25.57-19.85 25.15-18.6 25.15-16.45L25.15-16.45Q25.15-14.7 25.4-13.5 25.65-12.3 26.32-11.73 27-11.15 28.35-11.15ZM36.1-21.15L36.1-21.15Q35.35-21.15 34.25-21.45 33.15-21.75 32.05-22.15 30.95-22.55 30.25-22.83 29.55-23.1 29.55-23.1L29.55-23.1 29.35-25.1 37.15-25.1Q37.3-24.75 37.45-24.2 37.6-23.65 37.6-22.9L37.6-22.9Q37.6-22 37.17-21.58 36.75-21.15 36.1-21.15ZM46.65 0.5L46.65 0.5Q44.7 0.5 43.22 0.03 41.75-0.45 40.75-1.8 39.75-3.15 39.27-5.73 38.8-8.3 38.8-12.5L38.8-12.5Q38.8-19.35 41-22.43 43.2-25.5 47.09-25.5L47.09-25.5Q49.75-25.5 51.47-24.43 53.2-23.35 54.02-20.55 54.84-17.75 54.84-12.65L54.84-12.65Q54.84-5.6 52.77-2.55 50.7 0.5 46.65 0.5ZM46.8-3.35L46.8-3.35Q47.7-3.35 48.37-4.05 49.05-4.75 49.47-6.75 49.9-8.75 49.9-12.6L49.9-12.6Q49.9-16.45 49.59-18.4 49.3-20.35 48.65-21 48-21.65 46.95-21.65L46.95-21.65Q46-21.65 45.27-20.95 44.55-20.25 44.15-18.25 43.75-16.25 43.75-12.45L43.75-12.45Q43.75-9.45 43.95-7.6 44.15-5.75 44.52-4.85 44.9-3.95 45.47-3.65 46.05-3.35 46.8-3.35Z" opacity="1" transform="matrix(1,0,0,1,0,0)" fill="#000000" class="undefined-text-0" data-fill-palette-color="primary" id="text-0"></path></svg></g></svg></g></svg></g></svg></g></svg></g></svg></g></svg></g><g mask="url(#927c189c-11da-4b77-8e78-1768770250d1)"><g transform="matrix(2.5581638383249685, 0, 0, 2.5581638383249685, 75.16126862067787, 1)"><svg xmlns="http://www.w3.org/2000/svg" xmlns:xlink="http://www.w3.org/1999/xlink" version="1.1" x="0" y="0" viewBox="2.1510000228881836 2.1500015258789062 95.84900665283203 95.8499984741211" enable-background="new 0 0 100 100" xml:space="preserve" height="95.8499984741211" width="95.84900665283203" class="icon-none" data-fill-palette-color="accent" id="none"><g fill="#f4a424" data-fill-palette-color="accent"><path fill="#000000" d="M98 50.075C98 76.543 76.542 98 50.075 98 23.606 98 2.151 76.543 2.151 50.075c0-26.468 21.456-47.925 47.924-47.925C76.542 2.15 98 23.607 98 50.075zM49.797 6.185c-24.373 0-44.133 19.758-44.133 44.131 0 24.375 19.76 44.133 44.133 44.133S93.93 74.691 93.93 50.316C93.93 25.943 74.17 6.185 49.797 6.185z" data-fill-palette-color="accent"></path><path fill="#000000" d="M90.862 50.438c0 22.613-18.331 40.945-40.944 40.945-22.614 0-40.945-18.332-40.945-40.945 0-22.614 18.332-40.945 40.945-40.945C72.531 9.493 90.862 27.825 90.862 50.438zM21.963 34.746l-8.713 3.712 4.68 8.552-6.778 7.423 8.068 5.97-3.066 9.198 9.681 2.258 1.131 9.683 9.843-1.776 4.679 8.231 8.229-5.811 8.067 5.811 4.843-8.393 9.681 2.259 1.131-10.329 9.844-1.771-3.067-9.521 8.067-5.809-6.454-7.262 4.519-8.875-9.037-3.873 1.129-9.843-10.166-0.162-2.904-9.52-9.197 3.872-6.454-7.1-6.454 7.262-9.197-4.034-3.228 9.52-9.843-0.323L21.963 34.746z" data-fill-palette-color="accent"></path><path fill="#000000" d="M76.019 60.886l2.098 5.809-6.132 1.13-10.166-7.906-1.291 1.452 8.876 9.519-0.322 5.973-5.971-1.454L57.001 63.82c-0.675 0.37-1.38 0.693-2.111 0.963l4.671 12.562-3.229 4.841-4.355-3.389-1.265-13.12c-0.382 0.031-0.769 0.05-1.156 0.05s-0.77-0.019-1.15-0.047l-0.624 13.278-4.841 3.551-3.066-5.002 4.348-12.723c-0.708-0.261-1.391-0.568-2.047-0.924l-5.852 11.547-5.809 1.292-0.646-5.486 8.913-9.851c-0.566-0.549-1.092-1.14-1.57-1.769l-10.085 8.068-5.809-0.967 1.613-5.648 12.263-5.002h0.001c-0.312-0.77-0.563-1.569-0.748-2.394l-12.646 3.2-4.518-3.388 3.549-4.035h13.253c0.032-0.624 0.105-1.24 0.209-1.843l-0.068-0.092-13.071-2.905-2.42-4.357 5.325-2.582 11.664 5.611c0.264-0.522 0.555-1.027 0.875-1.514L26.158 34.1l-0.484-5.647h5.809l7.906 9.521c0 0 0.21 0.074 0.498 0.165 0.478-0.383 0.978-0.738 1.5-1.063-0.114-0.391-0.222-0.717-0.222-0.717L34.71 26.354l1.453-5.809 5.325 2.098 4.246 12.578c0.531-0.134 1.073-0.24 1.625-0.317l-1.354-13.067 3.712-4.034 3.712 3.872L52.007 34.94c0.646 0.103 1.274 0.246 1.891 0.426l3.565-12.401 5.486-2.743 1.937 5.971-6.779 10.488 1.776 1.614 8.23-9.682h5.81L73.438 34.1l-10.489 7.261 0.161 1.292c0 0-0.006 0.022-0.016 0.058 0.146 0.264 0.288 0.532 0.423 0.805 1.75-0.791 11.856-5.704 11.856-5.704l5.325 2.582c0 0-1.936 4.68-2.42 4.68-0.426 0-10.897 1.985-13.471 2.474 0.126 0.717 0.203 1.451 0.227 2.198l13.403-0.154 3.712 4.197-4.681 3.387-12.85-3.331c-0.186 0.776-0.428 1.532-0.727 2.256L76.019 60.886zM49.879 38.618c-1.157 0-2.098 0.94-2.098 2.098 0 1.159 0.94 2.099 2.098 2.099s2.098-0.939 2.098-2.099C51.977 39.558 51.036 38.618 49.879 38.618zM56.494 41.361c-1.158 0-2.097 0.94-2.097 2.098 0 1.159 0.938 2.099 2.097 2.099 1.159 0 2.099-0.94 2.099-2.099C58.593 42.301 57.653 41.361 56.494 41.361zM59.399 48.138c-1.158 0-2.097 0.941-2.097 2.098 0 1.158 0.938 2.097 2.097 2.097 1.159 0 2.099-0.938 2.099-2.097C61.498 49.079 60.559 48.138 59.399 48.138zM56.655 54.916c-1.157 0-2.098 0.939-2.098 2.097 0 1.16 0.94 2.097 2.098 2.097 1.159 0 2.099-0.938 2.099-2.097C58.754 55.855 57.814 54.916 56.655 54.916zM49.879 57.98c-1.157 0-2.098 0.941-2.098 2.1 0 1.157 0.94 2.097 2.098 2.097s2.098-0.939 2.098-2.097C51.977 58.922 51.036 57.98 49.879 57.98zM43.263 54.916c-1.159 0-2.097 0.939-2.097 2.097 0 1.16 0.938 2.097 2.097 2.097 1.159 0 2.098-0.937 2.098-2.097C45.361 55.855 44.422 54.916 43.263 54.916zM40.197 48.138c-1.159 0-2.097 0.941-2.097 2.098 0 1.158 0.938 2.097 2.097 2.097 1.159 0 2.098-0.938 2.098-2.097C42.295 49.079 41.356 48.138 40.197 48.138zM42.779 41.361c-1.159 0-2.097 0.94-2.097 2.098 0 1.159 0.938 2.099 2.097 2.099s2.097-0.94 2.097-2.099C44.876 42.301 43.938 41.361 42.779 41.361zM49.717 47.494c-1.516 0-2.742 1.227-2.742 2.743 0 1.515 1.227 2.741 2.742 2.741s2.742-1.227 2.742-2.741C52.459 48.721 51.232 47.494 49.717 47.494z" data-fill-palette-color="accent"></path></g></svg></g></g><mask id="927c189c-11da-4b77-8e78-1768770250d1"><rect width="640" height="400" fill="white"></rect><g transform="matrix(1,0,0,1,73.80936170212765,37.08)"><svg viewBox="0 0 247.9012765957447 173.04" height="173.04" width="247.9012765957447"><g><svg viewBox="0 0 247.9012765957447 173.04" height="173.04" width="247.9012765957447"><g><svg viewBox="0 0 247.9012765957447 173.04" height="173.04" width="247.9012765957447"><g><svg viewBox="0 0 247.9012765957447 173.04" height="173.04" width="247.9012765957447"><g id="SvgjsG1067"><svg viewBox="0 0 247.9012765957447 173.04" height="173.04" width="247.9012765957447" id="SvgjsSvg1066"><g><svg viewBox="0 0 247.9012765957447 173.04" height="173.04" width="247.9012765957447"><g transform="matrix(1,0,0,1,0,0)"><svg width="247.9012765957447" viewBox="-2.75 -29.5 61.59000015258789 43.29999923706055" height="173.04" data-palette-color="#2b2b2b"><path d="M9.1 0.5L9.1 0.5Q7.15 0.5 5.68 0.03 4.2-0.45 3.2-1.8 2.2-3.15 1.73-5.73 1.25-8.3 1.25-12.5L1.25-12.5Q1.25-19.35 3.45-22.43 5.65-25.5 9.55-25.5L9.55-25.5Q12.2-25.5 13.93-24.43 15.65-23.35 16.48-20.55 17.3-17.75 17.3-12.65L17.3-12.65Q17.3-5.6 15.23-2.55 13.15 0.5 9.1 0.5ZM9.25-3.35L9.25-3.35Q10.15-3.35 10.83-4.05 11.5-4.75 11.93-6.75 12.35-8.75 12.35-12.6L12.35-12.6Q12.35-16.45 12.05-18.4 11.75-20.35 11.1-21 10.45-21.65 9.4-21.65L9.4-21.65Q8.45-21.65 7.73-20.95 7-20.25 6.6-18.25 6.2-16.25 6.2-12.45L6.2-12.45Q6.2-9.45 6.4-7.6 6.6-5.75 6.98-4.85 7.35-3.95 7.93-3.65 8.5-3.35 9.25-3.35ZM27.5 9.8L27.5 9.8Q24.15 9.8 22.4 8.97 20.65 8.15 20.05 6.88 19.45 5.6 19.45 4.3L19.45 4.3Q19.45 2.55 20.45 1.07 21.45-0.4 23.02-1.5 24.6-2.6 26.35-3.15L26.35-3.15 27.95-1.8Q27.05-1.4 26.17-0.63 25.3 0.15 24.75 1.15 24.2 2.15 24.2 3.2L24.2 3.2Q24.2 3.95 24.5 4.5 24.8 5.05 25.62 5.35 26.45 5.65 27.95 5.65L27.95 5.65Q30.35 5.65 31.37 4.45 32.4 3.25 32.4 2.05L32.4 2.05Q32.4 1 31.97 0.4 31.55-0.2 30.32-0.53 29.1-0.85 26.75-1L26.75-1Q24.75-1.15 23.27-1.55 21.8-1.95 20.97-2.65 20.15-3.35 20.2-4.35L20.2-4.35Q20.25-5.15 20.72-6.03 21.2-6.9 22.12-7.83 23.05-8.75 24.35-9.65L24.35-9.65 27.1-8.75Q26.9-8.65 26.4-8.15 25.9-7.65 25.47-7.05 25.05-6.45 25.05-5.95L25.05-5.95Q25.05-5.3 26.6-5.08 28.15-4.85 30.45-4.5L30.45-4.5Q32.5-4.2 33.95-3.58 35.4-2.95 36.22-1.75 37.05-0.55 37.05 1.45L37.05 1.45Q37.05 3.7 36.05 5.6 35.05 7.5 32.97 8.65 30.9 9.8 27.5 9.8ZM28.1-7.7L28.1-7.7Q25.1-7.7 23.4-8.85 21.7-10 21-11.95 20.3-13.9 20.3-16.3L20.3-16.3Q20.3-19.7 21.35-21.7 22.4-23.7 24.27-24.6 26.15-25.5 28.65-25.5L28.65-25.5Q29.3-25.5 30.1-25.35 30.9-25.2 31.6-24.9L31.6-24.9 32.45-22.9Q34.15-22.2 35.17-20.58 36.2-18.95 36.2-16.25L36.2-16.25Q36.2-13.6 35.37-11.68 34.55-9.75 32.77-8.72 31-7.7 28.1-7.7ZM28.35-11.15L28.35-11.15Q29.45-11.15 30.17-11.78 30.9-12.4 31.25-13.8 31.6-15.2 31.6-17.4L31.6-17.4Q31.6-20 30.82-21.1 30.05-22.2 28.5-22.2L28.5-22.2Q27.55-22.2 26.77-21.65 26-21.1 25.57-19.85 25.15-18.6 25.15-16.45L25.15-16.45Q25.15-14.7 25.4-13.5 25.65-12.3 26.32-11.73 27-11.15 28.35-11.15ZM36.1-21.15L36.1-21.15Q35.35-21.15 34.25-21.45 33.15-21.75 32.05-22.15 30.95-22.55 30.25-22.83 29.55-23.1 29.55-23.1L29.55-23.1 29.35-25.1 37.15-25.1Q37.3-24.75 37.45-24.2 37.6-23.65 37.6-22.9L37.6-22.9Q37.6-22 37.17-21.58 36.75-21.15 36.1-21.15ZM46.65 0.5L46.65 0.5Q44.7 0.5 43.22 0.03 41.75-0.45 40.75-1.8 39.75-3.15 39.27-5.73 38.8-8.3 38.8-12.5L38.8-12.5Q38.8-19.35 41-22.43 43.2-25.5 47.09-25.5L47.09-25.5Q49.75-25.5 51.47-24.43 53.2-23.35 54.02-20.55 54.84-17.75 54.84-12.65L54.84-12.65Q54.84-5.6 52.77-2.55 50.7 0.5 46.65 0.5ZM46.8-3.35L46.8-3.35Q47.7-3.35 48.37-4.05 49.05-4.75 49.47-6.75 49.9-8.75 49.9-12.6L49.9-12.6Q49.9-16.45 49.59-18.4 49.3-20.35 48.65-21 48-21.65 46.95-21.65L46.95-21.65Q46-21.65 45.27-20.95 44.55-20.25 44.15-18.25 43.75-16.25 43.75-12.45L43.75-12.45Q43.75-9.45 43.95-7.6 44.15-5.75 44.52-4.85 44.9-3.95 45.47-3.65 46.05-3.35 46.8-3.35Z" opacity="1" transform="matrix(1,0,0,1,0,0)" fill="#000000" class="undefined-text-0" data-fill-palette-color="primary" id="SvgjsPath1065" stroke-width="7" stroke="black" stroke-linejoin="round"></path></svg></g></svg></g></svg></g></svg></g></svg></g></svg></g></svg></g></mask></svg></g><defs></defs></svg><rect width="395.52" height="247.2" fill="none" stroke="none" visibility="hidden"></rect></g></svg></g></svg>